<?xml version="1.0" standalone="no"?>
<!DOCTYPE svg PUBLIC "-//W3C//DTD SVG 20010904//EN"
 "http://www.w3.org/TR/2001/REC-SVG-20010904/DTD/svg10.dtd">
<svg version="1.0" xmlns="http://www.w3.org/2000/svg"
 width="512.000000pt" height="512.000000pt" viewBox="0 0 512.000000 512.000000"
 preserveAspectRatio="xMidYMid meet">
<metadata>
Created by potrace 1.11, written by Peter Selinger 2001-2013
</metadata>
<g transform="translate(0.000000,512.000000) scale(0.100000,-0.100000)"
fill="#000000" stroke="none">
<path d="M2378 5115 c-2 -2 -32 -6 -68 -9 -306 -32 -599 -113 -848 -235 -45
-23 -84 -41 -87 -41 -8 0 -211 -123 -243 -146 -17 -14 -37 -22 -42 -19 -6 4
-9 2 -8 -3 2 -6 -18 -26 -43 -45 -37 -28 -46 -42 -45 -64 1 -15 5 -33 8 -39 5
-7 -12 -28 -39 -50 -26 -22 -52 -44 -59 -51 -9 -9 -16 -9 -30 1 -37 28 -73 9
-163 -87 -47 -50 -98 -103 -113 -119 -14 -15 -25 -28 -22 -28 2 0 -6 -12 -19
-26 -81 -94 -221 -313 -291 -458 -132 -275 -195 -479 -243 -796 -17 -115 -23
-460 -10 -590 104 -1014 782 -1860 1747 -2180 128 -43 174 -54 330 -85 145
-29 272 -39 475 -39 250 -1 422 21 663 85 201 52 466 164 636 267 37 23 70 42
72 42 2 0 36 23 74 50 39 28 76 48 82 44 7 -4 8 -3 4 4 -7 12 89 89 106 84 5
-1 7 2 4 7 -3 5 5 16 18 24 31 21 224 213 268 268 45 57 49 70 31 106 -14 30
-13 32 30 91 30 40 48 58 57 52 20 -13 100 13 100 32 0 5 20 41 44 81 147 243
286 607 320 842 4 22 11 65 16 95 34 201 34 546 1 765 -144 938 -800 1726
-1695 2034 -107 37 -264 79 -356 95 -19 3 -46 8 -60 11 -14 3 -45 7 -70 10
-25 3 -61 8 -80 12 -33 6 -446 13 -452 8z"/>
</g>
</svg>
